<svg width="15" height="11" viewBox="0 0 15 11" fill="none" xmlns="http://www.w3.org/2000/svg">
<path opacity="0.6" d="M11.735 11H3.2665C3.13806 11 3.01489 10.9509 2.92407 10.8634C2.83326 10.7759 2.78223 10.6573 2.78223 10.5336V9.15347C2.78262 8.83159 2.87955 8.51666 3.06137 8.24658C3.24319 7.9765 3.50215 7.76276 3.80711 7.63107C5.61929 6.85227 5.52031 6.87867 5.66193 6.87867H6.24366C6.35201 6.8786 6.45726 6.91353 6.54257 6.97788C6.62788 7.04223 6.68832 7.13227 6.71421 7.2336C6.75895 7.40339 6.86118 7.55396 7.00474 7.66151C7.14829 7.76907 7.32498 7.82747 7.50685 7.82747C7.68873 7.82747 7.86542 7.76907 8.00897 7.66151C8.15252 7.55396 8.25476 7.40339 8.29949 7.2336C8.32539 7.13227 8.38583 7.04223 8.47114 6.97788C8.55644 6.91353 8.66169 6.8786 8.77005 6.87867C9.38833 6.87867 9.42031 6.86694 9.54213 6.91974L11.199 7.63253C11.5045 7.76411 11.7639 7.97799 11.946 8.24837C12.1281 8.51876 12.2252 8.83411 12.2254 9.1564V10.5365C12.2254 10.6602 12.1744 10.7789 12.0835 10.8663C11.9927 10.9538 11.8696 11.0029 11.7411 11.0029L11.735 11ZM7.51218 0C6.92758 0 6.35609 0.166963 5.87001 0.479773C5.38392 0.792583 5.00507 1.23719 4.78135 1.75738C4.55763 2.27756 4.49909 2.84996 4.61314 3.40219C4.72719 3.95441 5.00871 4.46166 5.42209 4.85979C5.83547 5.25793 6.36215 5.52905 6.93553 5.6389C7.50891 5.74874 8.10323 5.69237 8.64333 5.4769C9.18344 5.26144 9.64508 4.89655 9.96987 4.4284C10.2947 3.96025 10.468 3.40985 10.468 2.8468C10.4672 2.09202 10.1555 1.36838 9.60139 0.834668C9.04723 0.300958 8.29587 0.000776523 7.51218 0ZM2.84924 3.0448C2.48119 3.0448 2.1214 3.14991 1.81537 3.34685C1.50935 3.54379 1.27083 3.8237 1.12998 4.1512C0.989132 4.47869 0.952279 4.83905 1.02408 5.18672C1.09589 5.53439 1.27312 5.85374 1.53338 6.10439C1.79363 6.35505 2.12521 6.52574 2.48619 6.5949C2.84718 6.66405 3.22134 6.62856 3.56138 6.49291C3.90142 6.35726 4.19205 6.12754 4.39653 5.8328C4.60101 5.53806 4.71015 5.19154 4.71015 4.83707C4.70975 4.36185 4.51356 3.9062 4.16466 3.57017C3.81576 3.23414 3.34266 3.04519 2.84924 3.0448ZM12.1508 3.0448C11.7826 3.04451 11.4227 3.14938 11.1165 3.34614C10.8103 3.5429 10.5715 3.82271 10.4304 4.15018C10.2893 4.47765 10.2523 4.83806 10.3239 5.18582C10.3955 5.53359 10.5726 5.85307 10.8328 6.10387C11.093 6.35467 11.4246 6.52552 11.7856 6.59479C12.1467 6.66407 12.5209 6.62866 12.861 6.49305C13.2012 6.35744 13.4919 6.12772 13.6964 5.83295C13.901 5.53818 14.0102 5.19161 14.0102 4.83707C14.0098 4.3621 13.8138 3.90668 13.4652 3.57069C13.1166 3.2347 12.6439 3.04558 12.1508 3.0448ZM14.301 7.31427C13.2944 6.87427 13.3188 6.87427 13.1802 6.87427C12.4599 6.87427 11.9878 6.87427 11.6695 6.87427C11.6025 6.87548 11.5378 6.89796 11.4854 6.93822C11.433 6.97848 11.3958 7.03427 11.3797 7.09694C11.3635 7.15961 11.3693 7.22566 11.3961 7.28484C11.4229 7.34402 11.4692 7.39303 11.5279 7.42427C11.7311 7.51905 11.9132 7.65107 12.064 7.81293C12.2508 8.01391 12.3939 8.24897 12.4846 8.50418C12.5754 8.75939 12.612 9.02956 12.5924 9.29867C12.5924 9.37646 12.6245 9.45108 12.6816 9.50609C12.7387 9.5611 12.8162 9.59201 12.897 9.59201H14.5173C14.6457 9.59201 14.7689 9.54287 14.8597 9.4554C14.9505 9.36794 15.0015 9.2493 15.0015 9.12561V8.35121C15.0013 8.13184 14.9352 7.9172 14.8112 7.73321C14.6872 7.54921 14.5105 7.40372 14.3025 7.31427H14.301ZM1.81371 6.87427C1.67665 6.87427 1.70406 6.87427 0.692895 7.31427C0.486056 7.40458 0.310664 7.55045 0.187761 7.73438C0.0648583 7.91831 -0.000335418 8.13248 1.29774e-06 8.35121V9.11973C1.29774e-06 9.24343 0.0510218 9.36206 0.141839 9.44953C0.232656 9.53699 0.35583 9.58613 0.484265 9.58613H2.10457C2.18535 9.58613 2.26281 9.55523 2.31993 9.50022C2.37705 9.44521 2.40914 9.3706 2.40914 9.2928C2.38896 9.024 2.42522 8.75404 2.51574 8.49902C2.60627 8.24401 2.74921 8.00918 2.93604 7.80854C3.08571 7.64776 3.26616 7.51629 3.46751 7.42134C3.52609 7.39017 3.57237 7.34129 3.59921 7.28225C3.62606 7.22321 3.63196 7.15729 3.61602 7.09469C3.60007 7.0321 3.56316 6.97631 3.511 6.93593C3.45883 6.89556 3.39431 6.87286 3.32741 6.87134C3.00609 6.87134 2.53553 6.87134 1.8198 6.87134L1.81371 6.87427Z" fill="black"/>
</svg>
