<svg width="19" height="27" viewBox="0 0 19 27" fill="none" xmlns="http://www.w3.org/2000/svg">
<path fill-rule="evenodd" clip-rule="evenodd" d="M13.8993 26.7362V25.7687H4.58898V26.7362C4.58898 26.9121 4.58898 27 4.72011 27H13.7682C13.7682 27 13.8993 26.8241 13.8993 26.7362ZM7.73614 21.8111C7.34275 21.8111 6.94935 22.0749 6.94935 22.4267C6.94935 22.5147 6.94935 22.6906 6.94935 22.6906H11.2767C11.2767 22.6906 11.2767 22.5147 11.2767 22.4267C11.2767 22.0749 11.1456 21.8111 10.7522 21.8111H10.4899V18.0293H10.8833C11.2767 18.0293 11.4078 17.6775 11.4078 17.3257C11.4078 17.2378 11.4078 16.9739 11.2767 16.798C11.1456 16.886 10.8833 16.886 10.7522 16.886V16.0065C12.9814 15.3909 14.4239 13.544 14.8172 11.1694C15.7352 11.0814 16.2597 10.6417 17.0465 10.114C19.0135 7.82736 18.8823 2.72638 18.8823 2.46254C18.8823 2.11075 18.7512 1.84691 18.3578 1.84691H14.8172V0.351792C14.8172 0.0879479 14.8172 0 14.6861 0H4.19559C4.06445 0 4.06445 0.0879479 4.06445 0.351792V1.93485H0.5239C0.130505 1.93485 -0.000626434 2.1987 -0.000626434 2.55049C-0.000626434 2.81433 -0.131758 7.82736 1.83522 10.202C2.62201 10.8176 3.14653 11.1694 4.06445 11.2573C4.32672 13.544 5.9003 15.3909 8.12953 16.0945V17.0619H7.86727C7.73614 16.886 7.47388 16.886 7.08048 16.798C7.08048 16.886 6.94935 17.1498 6.94935 17.3257C6.94935 17.6775 7.34275 18.0293 7.73614 18.0293H7.86727V21.8111H7.73614ZM1.04843 4.0456H3.80219V10.5537C3.4088 10.3778 3.0154 10.202 2.75314 9.85016C1.70408 8.53094 1.31069 5.71661 1.04843 4.0456ZM17.1776 4.0456C17.1776 5.80456 16.7842 8.61889 15.7352 9.85016C15.3418 10.202 14.9484 10.4658 14.6861 10.5537V4.0456H17.1776ZM13.8993 25.4169V24.2736C13.8993 24.1857 13.7682 24.0098 13.7682 24.0098H12.9814C12.8503 24.0098 12.8503 23.8339 12.8503 23.7459V23.3941C12.8503 23.3062 12.588 23.1303 12.4569 23.1303H10.8833H7.73614H5.9003C5.9003 23.1303 5.76917 23.2182 5.76917 23.3941V23.7459C5.76917 23.8339 5.63803 24.0098 5.63803 24.0098H4.72011C4.58898 24.0098 4.58898 24.0977 4.58898 24.2736V25.4169H13.8993Z" fill="white"/>
</svg>
