<svg width="21" height="15" viewBox="0 0 21 15" fill="none" xmlns="http://www.w3.org/2000/svg">
<path d="M0.0594567 7.03568C0.0594567 4.93938 0.065752 2.8368 0.0531616 0.740503C0.0531616 0.476106 0.122408 0.394269 0.386806 0.413154C0.73304 0.438335 1.07928 0.43204 1.42551 0.413154C1.68361 0.394269 1.75915 0.469811 1.75915 0.740503C1.74656 2.91234 1.75286 5.08417 1.75286 7.25601C1.75286 8.92423 1.75915 10.5925 1.74656 12.2607C1.74656 12.5125 1.81581 12.5754 2.06132 12.5754C3.55328 12.5628 5.03894 12.5628 6.53089 12.5754C6.80159 12.5754 6.85824 12.4873 6.85824 12.2355C6.84565 10.2651 6.85195 8.28842 6.85195 6.31803C6.85195 5.5689 7.12264 5.29191 7.87177 5.29191C9.62183 5.29191 11.3782 5.29191 13.1282 5.29191C13.8585 5.29191 14.1544 5.58779 14.1544 6.32432C14.1544 8.29471 14.1606 10.2714 14.1481 12.2418C14.1481 12.4999 14.211 12.5817 14.4754 12.5754C15.9548 12.5628 17.4341 12.5628 18.9135 12.5754C19.1968 12.5754 19.2597 12.4999 19.2597 12.2229C19.2534 8.41432 19.2597 4.60574 19.2471 0.797159C19.2471 0.501286 19.3038 0.381678 19.6186 0.413154C19.9396 0.44463 20.267 0.43204 20.5943 0.413154C20.8461 0.400564 20.972 0.463515 20.9343 0.740503C20.9154 0.866407 20.9343 0.99231 20.9343 1.11821C20.9343 5.09676 20.9343 9.06902 20.9343 13.0476C20.9343 13.1861 20.9343 13.3183 20.9217 13.4568C20.8776 13.9667 20.5943 14.2374 20.0844 14.2437C19.3605 14.2562 18.6365 14.2499 17.9126 14.2499C16.4206 14.2499 14.935 14.2499 13.443 14.2499C12.7631 14.2499 12.4672 13.9478 12.4672 13.2742C12.4672 11.2786 12.4609 9.28935 12.4735 7.29378C12.4735 7.02938 12.398 6.96013 12.1399 6.96643C11.0508 6.97902 9.95547 6.98532 8.8664 6.96643C8.57683 6.96013 8.52017 7.06086 8.52647 7.32526C8.53906 9.26417 8.53276 11.2094 8.53276 13.1483C8.53276 13.3371 8.52646 13.5323 8.4824 13.7086C8.40056 14.0296 8.11098 14.2437 7.74586 14.2437C5.44813 14.2499 3.15039 14.2499 0.852649 14.2437C0.36792 14.2437 0.065752 13.8911 0.065752 13.3686C0.0594568 11.9018 0.065752 10.4288 0.065752 8.962C0.0594568 8.3136 0.0594567 7.67778 0.0594567 7.03568Z" fill="white"/>
</svg>
