<svg width="27" height="24" viewBox="0 0 27 24" fill="none" xmlns="http://www.w3.org/2000/svg">
<path d="M24.2955 16.7552C24.4289 16.9977 24.441 17.21 24.441 17.4222C24.441 18.7442 24.4471 20.0722 24.4471 21.3942C24.4471 22.8132 23.5921 23.6743 22.1733 23.7046C21.7792 23.7107 21.3851 23.7046 20.991 23.7046C14.8368 23.7046 8.68865 23.7046 2.53444 23.7046C1.76441 23.7046 1.07926 23.5348 0.551757 22.9284C0.200088 22.5221 0.00606326 22.0552 0.00606326 21.5216C0 15.9001 0 10.2727 0 4.6452C0 3.46271 0.945868 2.34692 2.45562 2.35904C5.62064 2.37724 8.7796 2.35904 11.9446 2.37117C12.2478 2.37117 12.5146 2.31053 12.7874 2.18319C14.2365 1.49794 15.6917 0.818767 17.1408 0.145653C17.7411 -0.133294 18.0321 -0.0241409 18.3232 0.582268C18.5657 1.07952 18.8143 1.57678 19.0386 2.08616C19.1356 2.2984 19.2448 2.3833 19.4873 2.37724C20.4756 2.37117 21.47 2.36511 22.4583 2.40149C23.5436 2.43788 24.3925 3.37781 24.4228 4.38445C24.4713 5.90047 24.4289 7.41649 24.4471 8.93251C24.4471 9.09018 24.2106 9.2721 24.441 9.39338C24.5805 9.46615 24.7805 9.41764 24.9503 9.43583C25.9326 9.51466 26.6662 10.1211 26.9512 11.061C26.9876 11.1823 26.9876 11.2975 26.9936 11.4188C26.9936 12.4921 26.9754 13.5594 26.9997 14.6328C27.0179 15.4696 26.2357 16.5551 25.1443 16.7249C24.8715 16.7491 24.6108 16.7734 24.2955 16.7552ZM9.50719 3.77198C9.42837 3.74166 9.41018 3.72953 9.39199 3.72953C6.997 3.72953 4.60201 3.72953 2.20703 3.72953C1.95237 3.72953 1.75228 3.84474 1.57645 4.0388C1.35211 4.28136 1.35817 4.57244 1.35817 4.86351C1.35817 10.3394 1.35817 15.8152 1.35817 21.2972C1.35817 21.4185 1.36423 21.5397 1.37636 21.661C1.4188 22.0613 1.68559 22.3463 2.09182 22.413C2.23128 22.4372 2.37073 22.4433 2.51625 22.4433C9.02213 22.4433 15.528 22.4433 22.0399 22.4433C22.1309 22.4433 22.2218 22.4433 22.3128 22.4312C22.8645 22.3705 23.1677 22.0431 23.1677 21.4912C23.1738 20.2299 23.1738 18.9625 23.1677 17.7012C23.1677 17.113 22.81 16.7673 22.2218 16.7673C21.3851 16.7612 20.5423 16.7734 19.7056 16.7673C18.4444 16.7552 17.5835 16.0093 17.4561 14.7722C17.3409 13.6686 17.3652 12.5467 17.4379 11.443C17.5107 10.3151 17.923 9.85425 18.9052 9.5935C19.2387 9.50254 19.5722 9.44796 19.9178 9.43583C20.7242 9.40551 21.5306 9.37519 22.337 9.33274C22.8645 9.30242 23.1616 8.98709 23.1677 8.45345C23.1738 7.85917 23.1495 7.25882 23.1738 6.66454C23.1859 6.35528 23.095 6.28251 22.7918 6.28251C16.4072 6.29463 10.0226 6.28857 3.63189 6.28857C3.51063 6.28857 3.38936 6.29463 3.2681 6.28251C2.93462 6.25219 2.66783 5.98537 2.64358 5.68216C2.61933 5.36683 2.83154 5.0515 3.14077 4.97266C3.26203 4.94234 3.40149 4.94234 3.52882 4.94234C4.60808 4.94234 5.6934 4.94234 6.77266 4.94234C6.8818 4.94234 6.99094 4.94841 7.10008 4.8999C7.8883 4.52392 8.67652 4.16008 9.50719 3.77198ZM22.1673 15.4029C22.9858 15.4029 23.8044 15.409 24.6229 15.4029C25.3202 15.3968 25.6476 15.0633 25.6476 14.3841C25.6476 13.5048 25.6476 12.6255 25.6476 11.7462C25.6476 11.0671 25.3505 10.7639 24.6775 10.7639C23.0101 10.7639 21.3487 10.7639 19.6813 10.7639C19.0629 10.7639 18.7961 11.0307 18.79 11.6492C18.784 12.5649 18.784 13.4866 18.79 14.4023C18.79 15.1118 19.0689 15.3968 19.7784 15.4029C20.5726 15.4029 21.373 15.4029 22.1673 15.4029ZM10.2712 4.86958C10.2772 4.8817 10.2772 4.8999 10.2833 4.91202C13.1573 4.91202 16.0252 4.91202 18.9113 4.91202C18.8992 4.86351 18.8992 4.83319 18.8871 4.80893C18.3717 3.79017 17.8563 2.77747 17.3591 1.75264C17.256 1.54646 17.153 1.63135 17.0256 1.68593C15.6735 2.32266 14.3275 2.95939 12.9754 3.59612C12.0719 4.0206 11.1746 4.44509 10.2712 4.86958ZM19.8329 3.73559C20.0451 4.12976 20.2392 4.4936 20.4271 4.85138C20.4696 4.93022 20.5302 4.93022 20.603 4.93628C21.3972 4.93628 22.1915 4.93628 22.9919 4.93628C23.0889 4.93628 23.1556 4.92415 23.1738 4.79681C23.2526 4.29955 22.8949 3.75985 22.4159 3.74166C21.567 3.71134 20.7242 3.73559 19.8329 3.73559Z" fill="white"/>
</svg>
