<svg width="40" height="52" viewBox="0 0 40 52" fill="none" xmlns="http://www.w3.org/2000/svg">
<path fill-rule="evenodd" clip-rule="evenodd" d="M26.4727 7.85455L28.5091 6.83636C28.8 5.67273 29.3818 4.94545 30.5455 5.23636C30.9818 4.21818 31.4182 3.49091 32.7273 4.07273C32.7273 3.05455 33.6 2.18182 34.9091 2.90909C34.4727 2.32727 36.0727 0.872727 36.9455 1.45455L38.6909 0.436364L39.8545 2.18182C39.2727 2.61818 38.4 3.05455 37.8182 3.34545C37.8182 4.8 36.8 5.09091 35.6364 4.94545C35.9273 5.81818 34.9091 6.69091 33.8909 6.25455C33.7455 7.27273 33.0182 7.85455 31.7091 7.41818C31.5636 8.58182 30.6909 9.30909 29.2364 8.87273L27.6364 9.89091L26.4727 7.85455ZM6.69091 28.5091C10.4727 28.5091 13.5273 31.5636 13.5273 35.2C13.5273 37.2364 12.6545 38.9818 11.3455 40.2909C10.3273 40.2909 9.30909 39.8545 8.14545 39.2727C6.25455 38.1091 4.65455 36.2182 3.2 33.7455C2.61818 32.7273 2.18182 31.5636 1.74545 30.5455C3.05455 29.3818 4.94545 28.5091 6.69091 28.5091ZM10.7636 40.7273C9.74545 41.7455 8.29091 42.1818 6.69091 42.1818C3.05455 42.1818 0 39.1273 0 35.2C0 33.6 0.436364 32.1455 1.45455 30.9818C1.89091 32 2.32727 33.0182 2.61818 34.0364C4.07273 36.6545 6.10909 38.6909 7.85455 39.7091C8.87273 40.2909 9.89091 40.7273 10.7636 40.7273ZM32.4364 13.8182H32.8727C33.8909 13.8182 34.7636 14.6909 34.7636 15.5636V47.8545L32.5818 51.4909L30.4 47.8545V16C30.2545 14.8364 31.2727 13.8182 32.4364 13.8182ZM14.9818 14.1091H15.4182C16.4364 13.9636 17.4545 14.5455 17.6 15.5636L23.1273 47.4182L21.5273 51.2L18.6182 48.1455L13.2364 16.8727C12.9455 15.5636 13.8182 14.4 14.9818 14.1091ZM6.69091 13.8182H7.27273C8.29091 13.8182 9.01818 14.6909 9.01818 15.5636V28.8C8.14545 28.5091 7.41818 28.3636 6.54545 28.3636C5.67273 28.3636 5.09091 28.5091 4.50909 28.8V16C4.65455 14.8364 5.52727 13.8182 6.69091 13.8182ZM9.16364 42.0364V47.8545L6.69091 51.4909L4.65455 47.8545V42.0364C5.23636 42.1818 5.81818 42.3273 6.69091 42.3273C7.56364 42.3273 8.29091 42.1818 8.87273 41.8909H9.16364V42.0364ZM9.89091 0L11.9273 1.01818C12.9455 0.581818 13.8182 1.01818 14.1091 2.18182C15.2727 1.74545 16.1455 2.03636 16.2909 3.34545C17.1636 2.76364 18.3273 3.2 18.4727 4.50909C18.6182 4.07273 20.6545 4.65455 20.6545 5.96364L22.2545 6.98182L21.2364 8.72727C20.6545 8.29091 20.0727 7.85455 19.2 7.70909C18.0364 8.29091 17.1636 7.56364 16.7273 6.54545C16.1455 7.12727 14.8364 6.54545 14.6909 5.52727C13.6727 5.67273 12.9455 5.52727 12.6545 4.07273C11.4909 4.50909 10.4727 4.07273 10.1818 2.61818L8.87273 1.74545L9.89091 0Z" fill="#F5F5F5"/>
</svg>
