<svg width="40" height="40" viewBox="0 0 40 40" fill="none" xmlns="http://www.w3.org/2000/svg">
<path fill-rule="evenodd" clip-rule="evenodd" d="M20.155 0C24.186 0 28.2171 1.24031 31.4729 3.72093C25.8915 5.5814 20.4651 8.21705 15.5039 11.3178C10.0775 14.7287 4.8062 18.9147 0.620155 23.7209C0.310078 22.4806 0 21.2403 0 20.155C0 9.14729 9.14729 0 20.155 0ZM32.7132 4.49612C33.1783 4.96124 33.6434 5.42636 34.2636 5.73643C34.4186 5.89147 34.8837 6.35659 35.1938 6.82171C28.9923 8.83721 23.2558 11.3178 18.1395 14.8837C11.938 18.6047 6.51163 22.9457 1.70543 28.3721C1.55039 27.7519 1.24031 26.8217 1.08527 26.2015C0.930233 26.0465 0.930233 25.5814 0.620155 25.2713C5.11628 20.155 10.3876 15.814 16.2791 12.2481C21.2403 9.14729 26.8217 6.66667 32.7132 4.49612ZM35.969 7.90698C36.4341 8.37209 36.5891 8.83721 36.8992 9.14729C37.0543 9.30233 37.3643 9.76744 37.5194 10.0775C31.0078 12.2481 24.9612 15.1938 19.5349 18.6047C13.6434 22.0155 8.52713 26.6667 3.72093 31.6279C3.56589 31.1628 3.10078 30.6977 2.7907 30.3876C2.63566 30.2326 2.63566 29.9225 2.32558 29.7674C7.13178 24.3411 12.5581 19.845 18.6047 16.124C23.876 12.7132 29.6124 9.92248 35.969 7.90698ZM38.1395 11.4729C38.2946 11.938 38.6047 12.4031 38.7597 12.7132C39.6899 15.0388 40 17.5194 40 20C40 31.0078 31.1628 39.845 20.155 39.845C14.1085 39.845 8.83721 37.2093 5.27132 33.1783C5.11628 33.0233 4.8062 32.7132 4.65116 32.5581C9.14729 27.5969 14.4186 23.2558 20.3101 19.5349C25.5814 16.2791 31.6279 13.6434 38.1395 11.4729Z" fill="#FCFCFC"/>
</svg>
