<svg width="40" height="30" viewBox="0 0 40 30" fill="none" xmlns="http://www.w3.org/2000/svg">
<path fill-rule="evenodd" clip-rule="evenodd" d="M7.63252 21.3428C4.80567 24.0283 3.95761 25.0177 1.13075 27.8445L0.706726 28.4099H0.989412C9.61132 22.4735 18.9399 25.3004 26.7138 29.9647C29.258 26.0071 35.1944 22.1908 39.7173 21.3428C40.1414 11.7315 36.6078 4.52299 26.2898 2.26151C24.5937 -0.282662 22.6149 -0.141319 20.7774 2.26151C11.3074 4.80568 6.92581 10.6007 7.34984 19.9294C15.5477 18.2332 23.3216 18.7986 30.3887 21.4841C30.2474 22.0495 30.2474 22.6149 29.9647 23.0389C22.6149 20.9188 15.1237 20.3534 7.63252 21.3428Z" fill="white"/>
</svg>
