<svg width="40" height="49" viewBox="0 0 40 49" fill="none" xmlns="http://www.w3.org/2000/svg">
<path fill-rule="evenodd" clip-rule="evenodd" d="M26.2712 13.2203C24.5763 14.9153 23.2203 17.9661 18.6441 16.6102C17.7966 15.4237 23.7288 15.5932 26.2712 13.2203ZM25.9322 23.8983C30.1695 21.5254 32.8814 17.2881 34.2373 11.8644C34.7458 9.15254 33.3898 21.6949 25.9322 23.8983ZM9.49152 4.40678C7.11864 5.59322 6.1017 8.47458 7.28814 10.8475C8.47458 13.2203 11.1864 14.2373 13.5593 13.0508C14.2373 12.8814 14.7458 12.5424 14.9153 12.0339C15.4237 12.0339 15.5932 12.0339 15.9322 11.8644C16.6102 11.8644 17.2881 11.3559 17.6271 10.8475C17.7966 10.339 18.1356 9.66102 18.1356 9.15254C18.1356 8.64407 18.1356 8.47458 18.1356 8.13559C17.9661 7.11864 17.4576 6.94915 16.9492 7.11864C16.7797 7.11864 16.4407 7.11864 16.2712 7.28814C16.2712 7.11864 16.1017 6.77966 16.1017 6.61017C15.5932 6.61017 15.5932 6.44068 15.5932 6.44068L18.1356 5.76271L17.9661 4.74576L14.9153 5.42373C13.5593 4.23729 11.3559 3.72881 9.49152 4.40678ZM17.4576 9.49152H16.1017C16.2712 8.81356 16.1017 8.30508 16.2712 8.13559C16.6102 8.13559 16.7797 7.9661 16.9492 7.9661C16.9492 7.9661 17.1186 7.9661 17.4576 8.47458C17.4576 8.64407 17.4576 8.98305 17.4576 9.49152ZM16.1017 10H17.4576C17.1186 10.1695 17.1186 10.5085 16.9492 10.678C16.7797 10.8475 16.2712 11.3559 15.9322 11.3559C15.5932 11.3559 15.5932 11.3559 15.4237 11.5254C15.9322 10.8475 16.1017 10.339 16.1017 10ZM0 16.7797H2.20339V16.1017H3.8983V16.7797H6.77966V16.1017H8.13559V16.7797H10.5085V17.9661H7.9661V18.6441H6.61017V17.9661H3.72881V18.6441H2.0339V17.9661H0V16.7797ZM0 18.6441H1.86441V32.3729H0V18.6441ZM4.23729 18.6441H5.9322V32.3729H4.23729V18.6441ZM7.9661 18.6441H9.83051V32.3729H7.9661V18.6441ZM27.2881 11.3559C27.2881 11.1864 27.1186 11.1864 27.1186 11.1864C26.4407 10.339 25.9322 11.0169 24.2373 11.6949C21.8644 12.3729 19.1525 13.5593 16.6102 14.2373C13.2203 12.3729 9.32203 17.1186 12.0339 20.678C14.5763 23.7288 16.2712 25.9322 18.4746 29.4915C13.7288 37.4576 13.0508 33.8983 8.81356 45.7627C7.62712 48.8136 12.5424 50.1695 13.7288 47.1186C14.9153 43.7288 18.1356 36.2712 21.0169 34.4068C20.339 36.2712 20.339 41.5254 20.5085 43.5593C21.0169 46.1017 20.5085 44.0678 21.5254 46.6102C22.5424 49.661 27.4576 48.3051 26.4407 45.2542C25.7627 43.2203 25.7627 44.2373 25.4237 42.2034C23.2203 32.0339 32.7119 33.7288 22.0339 20.678C24.4068 19.4915 26.7797 18.1356 28.4746 16.4407C29.4915 15.7627 29.4915 14.7458 29.1525 13.8983L28.4746 12.8814L29.8305 11.5254C30 11.5254 30.339 11.6949 30.8475 11.6949C31.3559 11.6949 31.8644 11.5254 32.0339 11.0169L39.8305 3.38983C39.8305 3.38983 40 3.22034 40 2.71186C40 2.54237 39.8305 2.20339 39.8305 2.0339C39.4915 1.52542 39.1525 1.35593 38.8136 1.01695C38.3051 0.508475 37.6271 0 36.9492 0C36.7797 0 36.4407 0 36.2712 0.169492L28.8136 7.79661C28.1356 8.47458 28.1356 9.49152 28.4746 10L27.2881 11.3559ZM30.339 11.1864L32.2034 7.9661C32.3729 7.45763 32.7119 7.28813 32.8814 6.77966C32.5424 6.94915 32.2034 7.28814 31.8644 7.45763L28.4746 9.49152C28.8136 9.66102 28.8136 10 28.8136 10L30 11.0169L30.339 11.1864Z" fill="white"/>
</svg>
