<svg width="20" height="44" viewBox="0 0 20 44" fill="none" xmlns="http://www.w3.org/2000/svg">
<path fill-rule="evenodd" clip-rule="evenodd" d="M14.9291 42.8169V41.2676H4.92909V42.8169C4.92909 43.0986 4.92909 43.2394 5.06993 43.2394H14.7882C14.7882 43.2394 14.9291 42.9577 14.9291 42.8169ZM8.30937 34.9296C7.88683 34.9296 7.4643 35.3521 7.4643 35.9155C7.4643 36.0563 7.4643 36.338 7.4643 36.338H12.1122C12.1122 36.338 12.1122 36.0563 12.1122 35.9155C12.1122 35.3521 11.9713 34.9296 11.5488 34.9296H11.2671V28.8732H11.6896C12.1122 28.8732 12.253 28.3099 12.253 27.7465C12.253 27.6056 12.253 27.1831 12.1122 26.9014C11.9713 27.0423 11.6896 27.0423 11.5488 27.0423V25.6338C13.9432 24.6479 15.4925 21.6901 15.915 17.8873C16.9009 17.7465 17.4643 17.0423 18.3094 16.1972C20.422 12.5352 20.2812 4.3662 20.2812 3.94366C20.2812 3.38028 20.1404 2.95775 19.7178 2.95775H15.915V0.56338C15.915 0.140845 15.915 0 15.7742 0H4.50655C4.36571 0 4.36571 0.140845 4.36571 0.56338V3.09859H0.562888C0.140353 3.09859 -0.000491992 3.52113 -0.000491992 4.08451C-0.000491992 4.50704 -0.141337 12.5352 1.97134 16.338C2.81641 17.3239 3.37979 17.8873 4.36571 18.0282C4.6474 21.6901 6.33754 24.6479 8.7319 25.7746V27.3239H8.45021C8.30937 27.0423 8.02768 27.0423 7.60514 26.9014C7.60514 27.0423 7.4643 27.4648 7.4643 27.7465C7.4643 28.3099 7.88683 28.8732 8.30937 28.8732H8.45021V34.9296H8.30937ZM1.12627 6.47887H4.08402V16.9014C3.66148 16.6197 3.23894 16.338 2.95725 15.7746C1.83049 13.662 1.40796 9.15493 1.12627 6.47887ZM18.4502 6.47887C18.4502 9.29577 18.0277 13.8028 16.9009 15.7746C16.4784 16.338 16.0558 16.7606 15.7742 16.9014V6.47887H18.4502ZM14.9291 40.7042V38.8732C14.9291 38.7324 14.7882 38.4507 14.7882 38.4507H13.9432C13.8023 38.4507 13.8023 38.169 13.8023 38.0282V37.4648C13.8023 37.3239 13.5206 37.0423 13.3798 37.0423H11.6896H8.30937H6.33754C6.33754 37.0423 6.19669 37.1831 6.19669 37.4648V38.0282C6.19669 38.169 6.05585 38.4507 6.05585 38.4507H5.06993C4.92909 38.4507 4.92909 38.5915 4.92909 38.8732V40.7042H14.9291Z" fill="white"/>
</svg>
