<svg width="40" height="40" viewBox="0 0 40 40" fill="none" xmlns="http://www.w3.org/2000/svg">
<path fill-rule="evenodd" clip-rule="evenodd" d="M9.71014 19.7102C6.81159 19.8551 4.63768 20.5797 1.73913 20.7246C-3.18841 -8.11593 43.913 -6.23187 39.7101 22.6087C39.8551 24.058 38.2609 23.7681 36.087 23.6232C31.8841 33.0435 21.3043 34.9275 15.6522 27.3913L11.4493 27.8261L11.0145 35.0725C10.7246 36.8116 9.42029 38.5507 7.53623 38.6957L1.73913 39.5652C1.5942 39.5652 1.15942 39.4203 0.869565 39.1304C0.724638 39.1304 0.434783 38.6957 0.434783 38.5507L0 28.116C0 27.6812 0.434783 27.2464 0.869565 27.1015L9.27536 26.087C9.56522 23.1884 9.27536 21.1594 9.71014 19.7102ZM14.3478 25.6522C13.3333 23.7681 12.7536 21.8841 12.1739 19.4203H11.7391C11.8841 20.8696 11.5942 23.0435 11.3043 25.942L14.3478 25.6522ZM9.27536 28.116L8.98551 31.1594L2.17391 31.8841L2.02899 28.8406L9.27536 28.116ZM7.24638 36.8116L2.31884 37.3913L2.17391 33.9131L8.98551 32.8986L8.84058 34.9275C8.84058 35.942 8.11594 36.8116 7.24638 36.8116Z" fill="white"/>
</svg>
