<svg width="27" height="27" viewBox="0 0 27 27" fill="none" xmlns="http://www.w3.org/2000/svg">
<path d="M-0.000965099 13.5333C-0.0298833 6.13023 6.03331 0.0188377 13.4653 -0.000441165C20.7913 -0.01972 27.0376 5.8796 27.0087 13.5429C26.9701 21.2834 20.7238 26.9996 13.5328 26.9996C6.16826 27.0092 0.0568714 21.1099 -0.000965099 13.5333ZM6.51528 8.05811C6.25501 8.01955 6.13934 8.18342 6.01403 8.36657C5.36819 9.37871 4.72235 10.3908 4.06687 11.403C3.88372 11.6825 3.8548 11.9717 3.93192 12.2802C4.38497 14.0345 4.8573 15.7793 5.30071 17.5337C5.38747 17.8807 5.58026 18.0349 5.908 18.1217C6.97797 18.4205 8.03831 18.7289 9.09864 19.047C9.38782 19.1338 9.61917 19.0952 9.81196 18.8253C10.9687 17.3119 12.1351 15.7986 13.3111 14.2852C13.4653 14.0827 13.5617 13.89 13.4846 13.6201C13.1086 12.2802 12.7327 10.9307 12.3664 9.59078C12.2893 9.31123 12.1351 9.157 11.8459 9.09917C11.1326 8.96422 10.4289 8.80998 9.7252 8.67503C8.65523 8.4726 7.58525 8.26054 6.51528 8.05811ZM15.5089 23.0378C15.5089 23.0474 15.5089 23.057 15.5089 23.0667C16.4921 23.0667 17.4657 23.0667 18.4489 23.0667C18.6995 23.0667 18.9116 23.0185 19.0851 22.8064C19.8273 21.9196 20.5888 21.052 21.3503 20.1845C21.5335 19.9724 21.5624 19.7893 21.4467 19.529C20.8202 18.1409 20.184 16.7529 19.6056 15.3455C19.4032 14.8539 19.0947 14.7093 18.6224 14.7093C17.3982 14.7093 16.1836 14.6997 14.9594 14.6707C14.5642 14.6611 14.3039 14.8057 14.0726 15.1142C12.964 16.5697 11.8362 18.006 10.7084 19.4519C10.4964 19.7218 10.4482 19.9628 10.6217 20.2809C11.0747 21.081 11.4989 21.881 11.923 22.7004C12.0579 22.9703 12.2507 23.0474 12.5399 23.0474C13.5231 23.0281 14.516 23.0378 15.5089 23.0378ZM6.29357 3.96136C6.38033 4.89638 6.47672 5.64826 6.496 6.40013C6.50564 6.80499 6.65023 6.95922 7.03581 7.03633C8.79982 7.37371 10.5542 7.74001 12.3182 8.09667C12.6267 8.1545 12.9062 8.1545 13.1954 7.97135C14.0919 7.40263 14.998 6.85318 15.9041 6.31338C16.1643 6.15914 16.2511 5.98564 16.1836 5.68681C15.9523 4.73251 15.7402 3.78785 15.5281 2.83355C15.4799 2.6022 15.3739 2.42869 15.1233 2.35158C14.0437 2.03348 12.9833 1.6961 11.9037 1.35872C11.7206 1.30088 11.5278 1.2816 11.335 1.32016C9.78304 1.62862 8.31785 2.15879 6.95869 2.98778C6.47672 3.27696 6.16826 3.57578 6.29357 3.96136ZM25.8519 13.2152C25.8134 12.8489 25.9869 12.1549 25.6881 11.5476C25.4182 10.9885 25.0519 10.468 24.7241 9.9378C24.6181 9.76429 24.4928 9.70645 24.2807 9.74501C23.471 9.8896 22.6709 10.0342 21.8612 10.1499C21.5624 10.1884 21.4275 10.3427 21.3311 10.6126C21.013 11.6247 20.6659 12.6272 20.3286 13.6297C20.2514 13.8803 20.2225 14.1213 20.3286 14.3816C21.0226 15.9239 21.6974 17.4565 22.3914 18.9988C22.4589 19.1531 22.536 19.3169 22.7288 19.2784C23.3361 19.1434 23.9433 18.9988 24.5506 18.835C24.7145 18.7868 24.7723 18.6133 24.8302 18.4687C25.5242 16.8685 25.9291 15.2298 25.8519 13.2152ZM24.2036 7.82676C24.2711 7.43155 24.0879 7.02669 23.8277 6.64112C22.7095 4.96386 21.2829 3.64326 19.5285 2.64076C18.7477 2.19735 18.0055 1.97564 17.1186 2.3323C16.5788 2.554 16.5403 2.51545 16.6752 3.10345C16.8873 3.98064 17.109 4.84818 17.2825 5.72537C17.3596 6.12059 17.5428 6.39049 17.8512 6.63148C18.767 7.33515 19.6827 8.03883 20.5792 8.77143C20.8973 9.02205 21.2154 9.12809 21.601 9.06061C22.2179 8.95458 22.8348 8.84854 23.4517 8.76179C24.2036 8.67503 24.2229 8.67503 24.2036 7.82676ZM4.42353 18.5844C4.38497 18.4205 4.35605 18.3144 4.32713 18.2084C3.87408 16.4733 3.39211 14.7382 2.98725 12.9935C2.81374 12.232 2.49564 11.644 1.82088 11.2295C1.38711 10.9596 1.37747 10.9307 1.30036 11.4126C0.808746 14.3912 1.32927 17.1866 2.83302 19.7989C2.98725 20.0688 3.11257 20.5219 3.39211 20.5219C3.69093 20.5219 3.73913 20.0495 3.88372 19.77C4.08615 19.3748 4.25966 18.9603 4.42353 18.5844ZM9.47458 25.1777C9.70592 25.2741 9.81196 25.3319 9.90835 25.3609C12.1833 26.0163 14.4582 26.0453 16.7523 25.4669C17.4367 25.2934 18.0922 25.0235 18.7381 24.7343C18.8344 24.6861 18.9694 24.6475 18.9501 24.5126C18.9308 24.368 18.8152 24.3005 18.6802 24.2716C18.5742 24.2523 18.4585 24.2523 18.3428 24.2523C16.3668 24.2234 14.3907 24.2523 12.4242 24.1463C11.2964 24.0788 10.4964 24.6957 9.47458 25.1777Z" fill="#FE7A49"/>
</svg>
