<svg width="25" height="33" viewBox="0 0 25 33" fill="none" xmlns="http://www.w3.org/2000/svg">
<path fill-rule="evenodd" clip-rule="evenodd" d="M16.5455 4.90909L17.8182 4.27273C18 3.54545 18.3636 3.09091 19.0909 3.27273C19.3636 2.63636 19.6364 2.18182 20.4545 2.54545C20.4545 1.90909 21 1.36364 21.8182 1.81818C21.5455 1.45455 22.5455 0.545455 23.0909 0.909091L24.1818 0.272727L24.9091 1.36364C24.5455 1.63636 24 1.90909 23.6364 2.09091C23.6364 3 23 3.18182 22.2727 3.09091C22.4545 3.63636 21.8182 4.18182 21.1818 3.90909C21.0909 4.54545 20.6364 4.90909 19.8182 4.63636C19.7273 5.36364 19.1818 5.81818 18.2727 5.54545L17.2727 6.18182L16.5455 4.90909ZM4.18182 17.8182C6.54545 17.8182 8.45455 19.7273 8.45455 22C8.45455 23.2727 7.90909 24.3636 7.09091 25.1818C6.45455 25.1818 5.81818 24.9091 5.09091 24.5455C3.90909 23.8182 2.90909 22.6364 2 21.0909C1.63636 20.4545 1.36364 19.7273 1.09091 19.0909C1.90909 18.3636 3.09091 17.8182 4.18182 17.8182ZM6.72727 25.4545C6.09091 26.0909 5.18182 26.3636 4.18182 26.3636C1.90909 26.3636 0 24.4545 0 22C0 21 0.272727 20.0909 0.909091 19.3636C1.18182 20 1.45455 20.6364 1.63636 21.2727C2.54545 22.9091 3.81818 24.1818 4.90909 24.8182C5.54545 25.1818 6.18182 25.4545 6.72727 25.4545ZM20.2727 8.63636H20.5455C21.1818 8.63636 21.7273 9.18182 21.7273 9.72727V29.9091L20.3636 32.1818L19 29.9091V10C18.9091 9.27273 19.5455 8.63636 20.2727 8.63636ZM9.36364 8.81818H9.63636C10.2727 8.72727 10.9091 9.09091 11 9.72727L14.4545 29.6364L13.4545 32L11.6364 30.0909L8.27273 10.5455C8.09091 9.72727 8.63636 9 9.36364 8.81818ZM4.18182 8.63636H4.54545C5.18182 8.63636 5.63636 9.18182 5.63636 9.72727V18C5.09091 17.8182 4.63636 17.7273 4.09091 17.7273C3.54545 17.7273 3.18182 17.8182 2.81818 18V10C2.90909 9.27273 3.45455 8.63636 4.18182 8.63636ZM5.72727 26.2727V29.9091L4.18182 32.1818L2.90909 29.9091V26.2727C3.27273 26.3636 3.63636 26.4545 4.18182 26.4545C4.72727 26.4545 5.18182 26.3636 5.54545 26.1818H5.72727V26.2727ZM6.18182 0L7.45455 0.636364C8.09091 0.363636 8.63636 0.636364 8.81818 1.36364C9.54545 1.09091 10.0909 1.27273 10.1818 2.09091C10.7273 1.72727 11.4545 2 11.5455 2.81818C11.6364 2.54545 12.9091 2.90909 12.9091 3.72727L13.9091 4.36364L13.2727 5.45455C12.9091 5.18182 12.5455 4.90909 12 4.81818C11.2727 5.18182 10.7273 4.72727 10.4545 4.09091C10.0909 4.45455 9.27273 4.09091 9.18182 3.45455C8.54545 3.54545 8.09091 3.45455 7.90909 2.54545C7.18182 2.81818 6.54545 2.54545 6.36364 1.63636L5.54545 1.09091L6.18182 0Z" fill="#F5F5F5"/>
</svg>
